{
  "accessors": [
    {
      "bufferView": 0,
      "componentType": 5126,
      "count": 28088,
      "max": [
        0.623759,
        0.548676,
        0.548676
      ],
      "min": [
        0.0,
        -0.066461,
        0.066461
      ],
      "type": "VEC3"
    },
    {
      "bufferView": 1,
      "componentType": 5126,
      "count": 28088,
      "type": "VEC3"
    },
    {
      "bufferView": 2,
      "componentType": 5125,
      "count": 168516,
      "type": "SCALAR"
    }
  ],
  "asset": {
    "generator": "vclib-tinygltf-exporter",
    "version": "2.0"
  },
  "bufferViews": [
    {
      "buffer": 0,
      "byteLength": 337056
    },
    {
      "buffer": 1,
      "byteLength": 337056
    },
    {
      "buffer": 2,
      "byteLength": 674064,
      "target": 34963
    }
  ],
  "buffers": [
    {
      "byteLength": 337056,
      "uri": "data:application/octet-stream;base64,"
    },
    {
      "byteLength": 337056,
      "uri": "data:application/octet-stream;base64,"
    },
    {
      "byteLength": 674064,
      "uri": "data:application/octet-stream;base64,"
    }
  ],
  "meshes": [
    {
      "primitives": [
        {
          "attributes": {
            "NORMAL": 1,
            "POSITION": 0
          },
          "indices": 2,
          "mode": 4
        }
      ]
    }
  ],
  "nodes": [
    {
      "matrix": [
        1.0,
        0.0,
        0.0,
        0.0,
        0.0,
        1.0,
        0.0,
        0.0,
        0.0,
        0.0,
        1.0,
        0.0,
        0.0,
        0.0,
        0.0,
        1.0
      ],
      "mesh": 0
    }
  ],
  "scene": 0,
  "scenes": [
    {
      "nodes": [
        0
      ]
    }
  ]
}
